<svg width="718" height="724" viewBox="0 0 718 724" fill="none" xmlns="http://www.w3.org/2000/svg">
<path d="M696.331 325.092L56.7971 3.26445C43.6302 -3.33302 28.0933 -1.28137 16.8826 8.61483C5.63436 18.4708 0.78142 34.3611 4.28005 49.4065C4.28005 49.4065 -9.61187 258.055 16.8828 283.916C43.3775 309.778 341.728 361.499 341.728 361.499C341.728 361.499 53.0792 387.359 28.6796 413.22C4.28005 439.082 4.28005 673.592 4.28005 673.592C0.7438 688.637 5.63436 704.567 16.8826 714.423C23.767 720.458 32.1938 723.555 40.7711 723.555C46.226 723.555 51.6808 722.308 56.7971 719.734L696.331 397.906C709.498 391.268 717.925 377.108 717.925 361.499C717.925 345.89 709.498 331.73 696.331 325.092Z" fill="#53638D"/>
</svg>
